<mxfile host="app.diagrams.net" modified="2024-04-23T09:17:50.149Z" agent="Mozilla/5.0 (Macintosh; Intel Mac OS X 10_15_7) AppleWebKit/605.1.15 (KHTML, like Gecko) Version/17.4.1 Safari/605.1.15" etag="yhkxzjbEyEO6DThvbhIs" version="24.2.8" type="github">
  <diagram name="第 1 页" id="2QumJhjEJ2KLDld_MW-d">
    <mxGraphModel dx="1078" dy="774" grid="1" gridSize="10" guides="1" tooltips="1" connect="1" arrows="1" fold="1" page="1" pageScale="1" pageWidth="827" pageHeight="1169" math="0" shadow="0">
      <root>
        <mxCell id="0" />
        <mxCell id="1" parent="0" />
        <mxCell id="-4Z-2a8HMcuNTcwh_V4J-18" value="" style="edgeStyle=orthogonalEdgeStyle;rounded=0;orthogonalLoop=1;jettySize=auto;html=1;" edge="1" parent="1" source="-4Z-2a8HMcuNTcwh_V4J-13" target="-4Z-2a8HMcuNTcwh_V4J-16">
          <mxGeometry relative="1" as="geometry" />
        </mxCell>
        <mxCell id="-4Z-2a8HMcuNTcwh_V4J-13" value="" style="rounded=0;whiteSpace=wrap;html=1;" vertex="1" parent="1">
          <mxGeometry x="130" y="220" width="520" height="280" as="geometry" />
        </mxCell>
        <mxCell id="-4Z-2a8HMcuNTcwh_V4J-14" value="" style="edgeStyle=orthogonalEdgeStyle;rounded=0;orthogonalLoop=1;jettySize=auto;html=1;strokeWidth=2;" edge="1" parent="1" source="-4Z-2a8HMcuNTcwh_V4J-1" target="-4Z-2a8HMcuNTcwh_V4J-13">
          <mxGeometry relative="1" as="geometry" />
        </mxCell>
        <mxCell id="-4Z-2a8HMcuNTcwh_V4J-1" value="&lt;p style=&quot;margin: 0pt 0pt 0.0001pt; text-align: justify; font-family: 等线; font-size: 10.5pt;&quot; class=&quot;MsoNormal&quot;&gt;&lt;span style=&quot;font-family: Calibri; font-size: 11pt;&quot;&gt;&lt;font face=&quot;宋体&quot;&gt;数据中心任务流与负荷数据的清洗融合方法研究&lt;/font&gt;&lt;/span&gt;&lt;/p&gt;" style="rounded=0;whiteSpace=wrap;html=1;" vertex="1" parent="1">
          <mxGeometry x="130" y="110" width="520" height="80" as="geometry" />
        </mxCell>
        <mxCell id="-4Z-2a8HMcuNTcwh_V4J-6" value="性能检测指标" style="image;aspect=fixed;html=1;points=[];align=center;fontSize=12;image=img/lib/azure2/management_governance/Monitor.svg;" vertex="1" parent="1">
          <mxGeometry x="230" y="390" width="70" height="70" as="geometry" />
        </mxCell>
        <mxCell id="-4Z-2a8HMcuNTcwh_V4J-7" value="资源利用情况" style="image;aspect=fixed;perimeter=ellipsePerimeter;html=1;align=center;shadow=0;dashed=0;spacingTop=3;image=img/lib/active_directory/cluster_server.svg;" vertex="1" parent="1">
          <mxGeometry x="230" y="240" width="70" height="70" as="geometry" />
        </mxCell>
        <mxCell id="-4Z-2a8HMcuNTcwh_V4J-8" value="" style="verticalLabelPosition=bottom;aspect=fixed;html=1;shape=mxgraph.salesforce.energy2;" vertex="1" parent="1">
          <mxGeometry x="480" y="240" width="70" height="70" as="geometry" />
        </mxCell>
        <mxCell id="-4Z-2a8HMcuNTcwh_V4J-9" value="负载数据" style="image;html=1;points=[];align=center;fontSize=12;image=img/lib/azure2/general/Load_Test.svg;" vertex="1" parent="1">
          <mxGeometry x="480" y="390" width="70" height="70" as="geometry" />
        </mxCell>
        <mxCell id="-4Z-2a8HMcuNTcwh_V4J-10" value="&lt;span style=&quot;white-space: nowrap;&quot;&gt;能源消耗数据&lt;/span&gt;" style="text;html=1;align=center;verticalAlign=middle;whiteSpace=wrap;rounded=0;" vertex="1" parent="1">
          <mxGeometry x="485" y="310" width="60" height="30" as="geometry" />
        </mxCell>
        <mxCell id="-4Z-2a8HMcuNTcwh_V4J-17" style="edgeStyle=orthogonalEdgeStyle;rounded=0;orthogonalLoop=1;jettySize=auto;html=1;exitX=0.5;exitY=1;exitDx=0;exitDy=0;entryX=0.5;entryY=0;entryDx=0;entryDy=0;strokeWidth=3;" edge="1" parent="1" source="-4Z-2a8HMcuNTcwh_V4J-15" target="-4Z-2a8HMcuNTcwh_V4J-16">
          <mxGeometry relative="1" as="geometry" />
        </mxCell>
        <mxCell id="-4Z-2a8HMcuNTcwh_V4J-15" value="&lt;font style=&quot;font-size: 14px;&quot;&gt;服务器各指标关联关系&lt;/font&gt;" style="text;html=1;align=center;verticalAlign=middle;whiteSpace=wrap;rounded=0;" vertex="1" parent="1">
          <mxGeometry x="310" y="470" width="160" height="30" as="geometry" />
        </mxCell>
        <mxCell id="-4Z-2a8HMcuNTcwh_V4J-16" value="&lt;font style=&quot;font-size: 14px;&quot;&gt;数据中心任务流与负荷数据接口&lt;/font&gt;" style="rounded=0;whiteSpace=wrap;html=1;" vertex="1" parent="1">
          <mxGeometry x="130" y="530" width="520" height="80" as="geometry" />
        </mxCell>
      </root>
    </mxGraphModel>
  </diagram>
</mxfile>
